HIERARCHY
ROOT root
{
	OFFSET 0.000000 0.000000 0.000000
	CHANNELS 6 Xposition Yposition Zposition Zrotation Yrotation Xrotation
	JOINT lhip
	{
		OFFSET 0.058581 -0.082280 -0.017664
		CHANNELS 3 Zrotation Yrotation Xrotation
		JOINT lknee
		{
			OFFSET 0.043451 -0.386469 0.008037
			CHANNELS 3 Zrotation Yrotation Xrotation
			JOINT lankle
			{
				OFFSET -0.014790 -0.426874 -0.037428
				CHANNELS 3 Zrotation Yrotation Xrotation
				JOINT ltoe
				{
					OFFSET 0.041054 -0.060286 0.122042
					CHANNELS 3 Zrotation Yrotation Xrotation
					End Site
					{
						OFFSET 0.000000 0.000000 0.000000
					}
				}
			}
		}
	}
	JOINT rhip
	{
		OFFSET -0.060310 -0.090513 -0.013543
		CHANNELS 3 Zrotation Yrotation Xrotation
		JOINT rknee
		{
			OFFSET -0.043257 -0.383688 -0.004843
			CHANNELS 3 Zrotation Yrotation Xrotation
			JOINT rankle
			{
				OFFSET 0.019056 -0.420046 -0.034562
				CHANNELS 3 Zrotation Yrotation Xrotation
				JOINT rtoe
				{
					OFFSET -0.034840 -0.062106 0.130323
					CHANNELS 3 Zrotation Yrotation Xrotation
					End Site
					{
						OFFSET 0.000000 0.000000 0.000000
					}
				}
			}
		}
	}
	JOINT lowerback
	{
		OFFSET 0.004439 0.124404 -0.038385
		CHANNELS 3 Zrotation Yrotation Xrotation
		JOINT upperback
		{
			OFFSET 0.004488 0.137956 0.026820
			CHANNELS 3 Zrotation Yrotation Xrotation
			JOINT chest
			{
				OFFSET -0.002265 0.056032 0.002855
				CHANNELS 3 Zrotation Yrotation Xrotation
				JOINT lowerneck
				{
					OFFSET -0.013390 0.211636 -0.033468
					CHANNELS 3 Zrotation Yrotation Xrotation
					JOINT upperneck
					{
						OFFSET 0.010113 0.088937 0.050410
						CHANNELS 3 Zrotation Yrotation Xrotation
						End Site
						{
							OFFSET 0.000000 0.000000 0.000000
						}
					}
				}
				JOINT lclavicle
				{
					OFFSET 0.071702 0.114000 -0.018898
					CHANNELS 3 Zrotation Yrotation Xrotation
					JOINT lshoulder
					{
						OFFSET 0.122921 0.045205 -0.019046
						CHANNELS 3 Zrotation Yrotation Xrotation
						JOINT lelbow
						{
							OFFSET 0.255332 -0.015649 -0.022946
							CHANNELS 3 Zrotation Yrotation Xrotation
							JOINT lwrist
							{
								OFFSET 0.265709 0.012698 -0.007375
								CHANNELS 3 Zrotation Yrotation Xrotation
								End Site
								{
									OFFSET 0.000000 0.000000 0.000000
								}
							}
						}
					}
				}
				JOINT rclavicle
				{
					OFFSET -0.082954 0.112472 -0.023707
					CHANNELS 3 Zrotation Yrotation Xrotation
					JOINT rshoulder
					{
						OFFSET -0.113228 0.046853 -0.008472
						CHANNELS 3 Zrotation Yrotation Xrotation
						JOINT relbow
						{
							OFFSET -0.260127 -0.014369 -0.031269
							CHANNELS 3 Zrotation Yrotation Xrotation
							JOINT rwrist
							{
								OFFSET -0.269108 0.006794 -0.006027
								CHANNELS 3 Zrotation Yrotation Xrotation
								End Site
								{
									OFFSET 0.000000 0.000000 0.000000
								}
							}
						}
					}
				}
			}
		}
	}
}
MOTION
Frames: 15
Frame Time: 0.033333
1.748810 0.696448 0.983049 -88.089481 2.707423 87.671011 2.465712 -0.826707 5.602058 -1.783775 -13.269784 3.131989 5.024117 9.723383 -19.413203 0.000000 -0.000000 0.000000 2.313426 -4.019866 3.604920 3.449360 0.577872 5.503984 2.124583 -5.827921 -14.374330 0.000000 -0.000000 0.000000 -1.625530 2.894653 4.435161 1.470085 -1.296204 2.719782 2.178405 -0.481091 5.148435 5.025346 3.605834 -1.305725 2.496608 -0.387444 6.535786 -24.283639 6.050187 2.212053 -65.162832 -5.721937 7.625489 11.077803 -23.921139 4.953732 -1.375188 -1.766030 -9.881278 22.356294 -4.473475 2.968395 64.178243 2.000684 10.110539 -16.306414 24.988740 -3.817222 6.081016 0.993272 -9.595754 
1.748707 0.696726 0.983235 -88.092132 2.702220 87.776165 2.462010 -0.980523 5.446843 -1.789515 -13.151127 3.213754 5.047250 9.772598 -19.225531 0.000000 -0.000000 0.000000 2.339643 -3.821532 3.466096 3.462091 0.476221 5.565421 2.217111 -5.890137 -14.295158 0.000000 -0.000000 0.000000 -1.666544 2.944830 4.576438 1.521528 -1.236476 2.588716 2.196863 -0.463251 5.034993 5.158812 3.141468 -1.436929 2.517166 -0.810330 6.500112 -24.334599 5.999614 2.185620 -65.104270 -5.688095 7.712035 11.066975 -23.603152 4.991356 -1.587309 -1.849884 -9.888518 22.260696 -4.469845 2.961415 64.173440 1.812144 10.101696 -16.222804 24.786491 -3.767217 6.213834 0.983169 -9.731756 
1.748146 0.697095 0.983107 -88.108438 2.617942 87.926069 2.382121 -0.955676 5.308444 -1.786900 -13.169240 3.251852 5.142670 9.793183 -19.214845 0.000000 -0.000000 0.000000 2.314798 -3.758714 3.412052 3.414611 0.433642 5.424015 2.143267 -5.928512 -14.333234 0.000000 -0.000000 0.000000 -1.785265 3.007847 4.436572 1.549862 -1.217025 2.544841 2.208624 -0.490356 5.029564 5.211605 2.820617 -1.090506 2.689020 -1.013452 6.343256 -24.357907 5.870467 2.385439 -65.062291 -5.696900 7.708678 11.213399 -23.584626 4.845568 -1.566550 -1.789527 -10.026869 22.177744 -4.354425 3.181087 64.190269 1.730000 10.047861 -16.172755 24.702543 -3.719830 6.268554 0.823305 -9.884286 
1.747645 0.697662 0.982912 -88.102924 2.622904 87.950240 2.503605 -0.949012 5.238657 -1.942196 -13.112612 3.349633 5.253850 9.821969 -19.163709 0.000000 -0.000000 0.000000 2.346137 -3.811632 3.390752 3.442906 0.310187 5.527388 2.034742 -5.829534 -14.287496 0.000000 -0.000000 0.000000 -1.748741 2.973514 4.508628 1.545843 -1.269665 2.580854 2.179094 -0.363857 4.833351 5.262687 2.291142 -0.293883 2.438200 -1.120376 6.571826 -24.229327 5.783777 2.726494 -65.159973 -5.864905 7.620789 11.301065 -23.855810 4.762366 -1.927359 -1.826540 -10.241387 21.976654 -4.237710 3.527352 64.418094 1.795724 9.809159 -16.276538 24.539082 -3.826566 6.523605 0.821539 -10.050079 
1.747228 0.698007 0.982906 -88.166486 2.614718 87.960266 2.506220 -0.887991 5.213559 -1.922133 -13.071060 3.434759 5.222022 9.783229 -19.190586 0.000000 -0.000000 0.000000 2.340697 -3.775220 3.420726 3.477535 0.366224 5.545783 2.093961 -5.852105 -14.340553 0.000000 -0.000000 0.000000 -1.739151 3.018512 4.410268 1.545291 -1.239817 2.738299 2.155446 -0.403262 4.939607 5.291337 2.404735 -0.718560 2.567816 -1.223868 6.479901 -24.261475 5.723293 2.517536 -65.123909 -5.958531 7.678375 11.277350 -23.836077 4.702736 -1.942499 -1.812065 -10.170050 22.012331 -4.221729 3.319709 64.361718 1.818811 9.876577 -16.207062 24.472837 -3.809176 6.552227 0.840020 -10.029777 
1.747173 0.698375 0.982874 -88.202613 2.573670 88.153418 2.498699 -0.972379 4.971505 -2.015695 -12.937030 3.553199 5.172019 9.913209 -19.119791 0.000000 -0.000000 0.000000 2.235928 -3.714156 3.240678 3.645671 0.318736 5.492841 2.194851 -5.803973 -14.269765 0.000000 -0.000000 0.000000 -1.751030 2.983841 4.361258 1.499643 -1.277151 2.525622 2.124658 -0.418955 5.054988 5.185460 2.823883 -0.502944 2.726451 -0.968618 6.546189 -24.153868 5.853646 2.434562 -65.152353 -6.080627 7.725139 11.306424 -24.148980 4.659636 -1.841573 -1.654852 -10.161460 22.010830 -4.248174 3.323066 64.330326 1.877038 9.993973 -16.194477 24.472135 -3.686532 6.544869 0.789908 -9.893514 
1.746771 0.698972 0.982969 -88.312544 2.542921 88.107067 2.479256 -0.987612 5.098536 -1.976418 -12.924949 3.507637 5.274475 9.910976 -19.296157 0.000000 -0.000000 0.000000 2.238077 -3.711614 3.288159 3.634406 0.356890 5.569994 2.150490 -5.803830 -14.291432 0.000000 -0.000000 0.000000 -1.784221 3.019906 4.449052 1.547447 -1.291470 2.460649 2.131818 -0.443416 4.919892 5.420984 2.207536 0.170568 2.568047 -1.256712 6.832417 -24.224531 5.760667 2.614718 -65.036317 -6.185075 7.702620 11.274187 -24.480969 4.520301 -1.666917 -1.470624 -10.016779 21.908748 -4.147057 3.507193 64.338480 1.843105 9.851428 -16.198752 24.723794 -3.931588 6.588910 0.803419 -10.000622 
1.746482 0.699382 0.982965 -88.372986 2.523895 88.152919 2.466183 -1.011631 5.111689 -1.938086 -12.766472 3.482290 5.279629 9.912559 -19.249085 0.000000 -0.000000 0.000000 2.178701 -3.674585 3.330252 3.692025 0.364688 5.467640 2.205624 -5.636324 -14.182283 0.000000 -0.000000 0.000000 -1.765000 3.027030 4.360362 1.547678 -1.314027 2.563110 2.108046 -0.410853 4.979503 5.259452 2.657275 0.035276 2.633461 -1.035266 6.865634 -24.100083 5.679063 2.399507 -65.190481 -6.425263 7.822364 11.223855 -24.607974 4.529385 -1.805233 -1.710272 -10.133525 21.875581 -4.222267 3.343362 64.364889 1.826044 9.977312 -16.278398 24.876882 -3.901303 6.585140 1.057098 -10.101804 
1.746036 0.699727 0.982888 -88.437183 2.481413 88.165536 2.440902 -0.922365 5.074580 -1.953806 -12.757412 3.604949 5.284097 9.871082 -19.339874 0.000000 -0.000000 0.000000 2.217004 -3.728238 3.231854 3.591071 0.344250 5.674460 2.210005 -5.707802 -14.327201 0.000000 -0.000000 0.000000 -1.846575 3.045464 4.398140 1.607905 -1.340190 2.529402 2.147791 -0.472271 4.997269 5.468985 2.371311 -0.140602 2.566493 -1.378026 7.222955 -24.138044 5.558801 2.412599 -65.128502 -6.549801 7.942879 11.213233 -25.045335 4.531736 -1.577712 -1.724640 -10.040071 21.815204 -4.190418 3.290307 64.354482 1.811136 9.995784 -16.337144 25.151342 -3.985620 6.576909 0.991491 -10.080546 
1.745988 0.700317 0.982882 -88.377402 2.474430 88.221306 2.491723 -0.933610 4.993804 -1.961425 -12.770102 3.617478 5.269468 9.818630 -19.308765 0.000000 -0.000000 0.000000 2.248036 -3.774732 3.196794 3.598232 0.329631 5.667822 2.225744 -5.663555 -14.358003 0.000000 -0.000000 0.000000 -1.830535 2.860257 4.473776 1.589356 -1.535036 2.472881 2.142160 -0.396575 4.969524 5.581964 1.889496 -0.363150 2.396768 -1.907734 7.465514 -24.112334 5.501419 2.424746 -65.079309 -6.732911 8.003495 11.288375 -25.622147 4.390411 -1.395959 -1.626398 -10.141213 21.798229 -3.956045 3.324491 64.457761 1.890244 10.021975 -16.512005 25.291569 -3.985116 6.498709 0.948325 -9.949162 
1.745642 0.700680 0.982954 -88.393474 2.473956 88.192037 2.481861 -0.908815 5.079648 -1.881472 -12.749997 3.561511 5.218607 9.833507 -19.296903 0.000000 -0.000000 0.000000 2.347519 -3.791922 3.264076 3.462510 0.347056 5.602362 2.175412 -5.633135 -14.315759 0.000000 -0.000000 0.000000 -1.835490 2.862860 4.578397 1.657468 -1.569753 2.455539 2.205293 -0.456124 4.826996 5.512717 1.734828 0.108534 2.396666 -1.876711 7.427300 -24.090884 5.307846 2.531788 -65.126946 -6.908693 8.021473 11.254725 -25.939308 4.285392 -1.466886 -1.647580 -10.233227 21.642278 -3.911042 3.344164 64.484701 1.870901 9.929085 -16.495648 25.541570 -3.995532 6.520281 1.038588 -9.905051 
1.745355 0.701134 0.982868 -88.440603 2.372853 88.216383 2.438114 -0.964068 5.101075 -1.960181 -12.712814 3.519312 5.247006 9.864352 -19.281978 0.000000 -0.000000 0.000000 2.295503 -3.695299 3.285297 3.416345 0.308661 5.563219 2.121028 -5.622354 -14.366044 0.000000 -0.000000 0.000000 -1.890249 2.852067 4.567503 1.622535 -1.621699 2.432527 2.172236 -0.506185 4.787742 5.595225 1.498496 0.673412 2.499150 -1.950821 7.379197 -24.001223 5.154947 2.628872 -65.163096 -7.069087 8.054780 11.426010 -26.253621 4.233201 -1.538346 -1.760158 -10.368052 21.580850 -3.867141 3.517884 64.624061 1.943773 9.891538 -16.575063 25.879427 -4.002790 6.598739 1.000621 -10.027426 
1.745000 0.701862 0.982949 -88.607141 2.366514 88.236762 2.466471 -0.826167 5.173989 -1.901853 -12.700857 3.389447 5.140907 9.882226 -19.230121 0.000000 -0.000000 0.000000 2.345747 -3.653102 3.312248 3.411452 0.410308 5.493954 2.134913 -5.619801 -14.477307 0.000000 -0.000000 0.000000 -1.899477 2.891425 4.549702 1.636311 -1.581756 2.370499 2.195504 -0.531701 4.886290 5.507311 1.465020 0.104734 2.367178 -2.181385 7.630658 -24.056184 5.060924 2.576717 -65.055725 -7.130668 8.156900 11.401392 -26.713484 4.161671 -1.378551 -1.667736 -10.313094 21.637756 -3.860625 3.407978 64.563751 1.866528 9.968459 -16.599615 26.143309 -4.030033 6.557455 0.999127 -9.989889 
1.745009 0.702594 0.982932 -88.770488 2.383082 88.245309 2.517547 -0.870576 5.202039 -1.894902 -12.562738 3.365511 5.149487 9.959205 -19.231840 0.000000 -0.000000 0.000000 2.437313 -3.579496 3.218953 3.348943 0.406147 5.618283 2.215278 -5.510911 -14.418742 0.000000 -0.000000 0.000000 -1.926934 2.932890 4.644171 1.693579 -1.575364 2.286889 2.264856 -0.498772 4.776023 5.529533 1.271607 0.608914 2.400861 -2.229758 7.778854 -24.003021 4.969656 2.612361 -65.176248 -7.344841 8.185448 11.417889 -26.849869 4.040322 -1.412795 -1.650129 -10.360873 21.440195 -3.884735 3.384998 64.670369 1.818035 9.973778 -16.542714 26.273625 -3.926632 6.636836 0.945318 -10.051793 
1.745033 0.703201 0.982939 -88.805106 2.373651 88.287624 2.530832 -1.002621 5.152658 -1.898968 -12.486251 3.355778 5.155875 10.086360 -19.191383 0.000000 -0.000000 0.000000 2.489240 -3.494748 3.179367 3.340728 0.405303 5.586712 2.185869 -5.590558 -14.426474 0.000000 -0.000000 0.000000 -1.941123 2.903265 4.615915 1.750175 -1.623991 2.307216 2.267639 -0.529389 4.704907 5.658027 1.065887 0.454282 2.188694 -2.565648 8.153929 -24.049845 4.887857 2.610060 -65.182230 -7.463145 8.274311 11.482571 -26.986121 3.946456 -1.559359 -1.836347 -10.589759 21.381896 -3.803122 3.518356 64.731853 1.906560 10.065105 -16.690053 26.263631 -3.993516 6.613803 1.027786 -10.110785 
